<svg xmlns="http://www.w3.org/2000/svg" xml:space="preserve" width="80px" height="80px" version="1.1" shape-rendering="geometricPrecision" text-rendering="geometricPrecision" image-rendering="optimizeQuality" fill-rule="evenodd" clip-rule="evenodd"
viewBox="0 0 1492409 1490052"
 xmlns:xlink="http://www.w3.org/1999/xlink">
 <g>
  <g>
   <path fill="#FD6F71" d="M379575 120216c-106511,62620 -195571,151658 -258169,258169l80533 165517 180081 -27498c34417,-54732 80820,-101135 135552,-135573l65396 -180060 -203393 -80555z"/>
   <path fill="#FD6F71" d="M517572 1109199c-54732,-34417 -101135,-80820 -135552,-135551l-140090 -56649 -120524 194668c62598,106489 151658,195549 258169,258147l177151 -56384 -39154 -204231z"/>
   <path fill="#FD6F71" d="M1112835 120216c106489,62620 195549,151658 258169,258169l-80556 165517 -180081 -27498c-34417,-54732 -80820,-101135 -135552,-135573l-65396 -180060 203416 -80555z"/>
   <path fill="#FD6F71" d="M974815 1109199c54732,-34417 101135,-80820 135552,-135551l140090 -56649 120547 194668c-62620,106489 -151680,195549 -258169,258147l-177173 -56384 39153 -204231z"/>
   <path fill="#E34B4C" d="M208836 378385c55855,-95009 132797,-176071 224369,-236929l-53630 -21240 0 0c-99857,58698 -184378,140641 -246139,238405 -4120,6522 -8130,13110 -12030,19764l43164 88730c12779,-30693 27564,-60329 44266,-88730z"/>
   <path fill="#EFEDEE" d="M1112835 120216l-138020 260615c-66233,-41644 -144607,-65749 -228621,-65749 -84015,0 -162389,24105 -228622,65749l-137997 -260615c107524,-63237 232830,-99526 366619,-99526 133788,0 259094,36289 366641,99526z"/>
   <path fill="#EFEDEE" d="M1470530 745026c0,133789 -36290,259094 -99526,366641l-260637 -138019c41666,-66234 65770,-144608 65770,-228622 0,-84015 -24104,-162389 -65770,-228622l260637 -138019c63236,107546 99526,232852 99526,366641z"/>
   <path fill="#E34B4C" d="M208836 1111645c-14653,-24898 -27829,-50766 -39463,-77471l-47967 77471c39132,66586 88575,126319 146171,177063 34549,30428 72051,57640 111998,81106l57904 -18420c-93445,-61166 -171907,-143242 -228643,-239749z"/>
   <path fill="#EFEDEE" d="M1112835 1369814c-107547,63259 -232853,99548 -366641,99548 -133789,0 -259095,-36289 -366619,-99548l137997 -260615c66233,41666 144607,65771 228622,65771 84014,0 162388,-24105 228621,-65771l138020 260615z"/>
   <path fill="#EFEDEE" d="M316250 745026c0,84014 24105,162388 65770,228622l-260614 138019c-63259,-107547 -99549,-232852 -99549,-366641 0,-133789 36290,-259095 99549,-366641l260614 138019c-41665,66233 -65770,144607 -65770,228622z"/>
   <path fill="#D2D2D2" d="M121406 1111645l67709 -35849c-51008,-99152 -79806,-211590 -79806,-330770 0,-119180 28798,-231618 79806,-330770l-67709 -35871c-63259,107546 -99549,232852 -99549,366641 0,45081 4143,90272 12472,134582 15357,81635 44948,160449 87077,232037z"/>
   <path fill="#D2D2D2" d="M402314 163182c20755,-15402 42304,-29790 64691,-42966 95736,-56296 205552,-91220 322904,-98204 -3526,-221 -7073,-397 -10621,-551 -7205,-353 -14410,-573 -21593,-683 -3834,-44 -7667,-88 -11501,-88 -50171,0 -99152,5089 -146458,14806 -77405,15909 -152055,44663 -220183,84742l22761 42944z"/>
   <path fill="#D2D2D2" d="M765319 1469054c1102,-22 2225,-44 3327,-44 7095,-243 14190,-551 21263,-970 -117352,-6985 -227168,-41908 -322904,-98226 -22387,-13154 -43936,-27542 -64691,-42944l-22739 42944c3349,1983 6720,3944 10113,5861 13617,7712 27476,14983 41556,21791 52903,25581 109375,44927 168514,57067 47284,9717 96265,14829 146436,14829 6367,0 12757,-308 19125,-308z"/>
   <path fill="black" d="M566244 208659c12075,0 21858,-9783 21858,-21857l0 -32566c0,-12074 -9783,-21879 -21858,-21879 -12074,0 -21857,9805 -21857,21879l0 32566c0,12074 9783,21857 21857,21857z"/>
   <path fill="black" d="M926143 208659c12074,0 21857,-9783 21857,-21857l0 -32566c0,-12074 -9783,-21879 -21857,-21879 -12074,0 -21857,9805 -21857,21879l0 32566c0,12074 9783,21857 21857,21857z"/>
   <path fill="black" d="M746194 226044c23620,0 45808,-9893 60879,-27124 7932,-9100 7007,-22893 -2071,-30847 -9100,-7954 -22915,-7029 -30848,2071 -6764,7734 -16966,12185 -27960,12185 -10995,0 -21197,-4451 -27961,-12185 -7954,-9100 -21747,-10025 -30847,-2071 -9078,7954 -10026,21747 -2071,30847 15071,17231 37259,27124 60879,27124z"/>
   <path fill="black" d="M1473989 578495c-2666,-11788 -14388,-19169 -26154,-16503 -11788,2666 -19169,14366 -16503,26154 11502,50810 17340,103206 17340,155690 0,118255 -29745,234439 -86195,337380l-221593 -117351c37435,-67049 57111,-142625 57111,-220029 0,-77382 -19676,-152958 -57111,-220029l221593 -117351c17693,32279 32896,66079 45301,100738 4076,11369 16569,17296 27961,13220 11347,-4076 17274,-16569 13198,-27939 -15666,-43803 -35541,-86284 -59095,-126341 -205420,-349278 -671257,-471852 -1021350,-265925 -226132,132996 -368492,381184 -368492,643627 0,61386 7491,122485 22276,181602 2931,11722 14807,18839 26529,15908 11700,-2930 18816,-14806 15886,-26506 -13925,-55657 -20976,-113187 -20976,-170982 0,-118255 29745,-234439 86196,-337380l221593 117351c-37435,67049 -57112,142625 -57112,220007 0,77404 19677,152980 57112,220029l-107899 57155 -113694 60196c-15181,-27674 -28556,-56516 -39837,-85931 -4319,-11281 -16966,-16922 -28247,-12581 -11260,4318 -16900,16965 -12582,28247 60263,157078 174265,291263 319247,376556 114068,67093 244662,102545 377702,102545 393301,0 728655,-321384 745510,-714069 2843,-66233 -3084,-132841 -17715,-197488zm-133766 -209739l-100981 53498 -121582 64383c-30847,-44420 -69847,-83420 -114245,-114267l66322 -125240 51537 -97323c88134,55768 163203,130836 218949,218949zm-256649 -241181l-117352 221593c-67048,-37435 -142624,-57133 -220028,-57133 -77405,0 -152980,19698 -220029,57133l-117352 -221593c102942,-56472 219148,-86218 337381,-86218 118233,0 234438,29746 337380,86218zm-712460 22232l51537 97323 66321 125240c-44398,30847 -83397,69847 -114245,114267l-121582 -64383 -100980 -53498c55745,-88113 130814,-163181 218949,-218949zm29855 377350c74012,-118189 205663,-191385 345225,-191385 220447,0 408086,185964 408086,408064 0,221968 -186295,408086 -408086,408086 -221814,0 -408087,-186427 -408087,-408086 0,-77228 22607,-152407 62862,-216679zm-248826 591759l101002 -53476 121582 -64382c30848,44420 69825,83419 114245,114266l-64360 121560 -53498 101003c-88135,-55767 -163204,-130836 -218971,-218971zm594051 327399c-118233,0 -234439,-29746 -337381,-86196l117352 -221593c67049,37435 142624,57111 220029,57111 77404,0 152980,-19676 220028,-57111l57134 107921 60218 113672c-102942,56450 -219147,86196 -337380,86196zm375080 -108428l-53498 -101003 -64361 -121560c44398,-30847 83398,-69846 114245,-114266l121560 64382 101003 53476c-55746,88135 -130815,163204 -218949,218971z"/>
  </g>
 </g>
</svg>
