<svg xmlns="http://www.w3.org/2000/svg" xml:space="preserve" width="80px" height="80px" version="1.1" shape-rendering="geometricPrecision" text-rendering="geometricPrecision" image-rendering="optimizeQuality" fill-rule="evenodd" clip-rule="evenodd"
viewBox="0 0 799988 799988"
 xmlns:xlink="http://www.w3.org/1999/xlink">
 <g>
  <path fill="#FEFEFE" fill-rule="nonzero" d="M799988 399988c0,220911 -179077,400000 -399988,400000 -220911,0 -400000,-179089 -400000,-400000 0,-220911 179089,-399988 400000,-399988 220911,0 399988,179077 399988,399988z"/>
  <path fill="#FF5D31" fill-rule="nonzero" d="M507574 257714c-1441,1961 -3803,5185 -5244,7157l-3071 4193c-1441,1973 -4264,2457 -6272,1063 0,0 -7074,-4878 -8256,-5610 -48755,-30224 -112120,-33366 -165246,-2728 -2102,1216 -4157,2456 -6189,3744 -968,614 -3886,2610 -3886,2610 -2019,1370 -4878,921 -6378,-1016l-401 -531c-1500,-1925 -3933,-5091 -5433,-7016l-12402 -16051c-1500,-1937 -3944,-5090 -5433,-7027l-22015 -28500c-1488,-1937 -3933,-5091 -5421,-7028l-15921 -20598c-1500,-1937 -3414,-4417 -4276,-5516 -862,-1110 -319,-2917 1181,-4039 0,0 0,0 1370,-980 15614,-11221 32409,-20882 50126,-28772 1618,-720 1618,-720 1618,-720 1783,-756 4027,-425 4984,732 957,1170 3000,3662 4559,5540l11716 14244c1548,1877 4087,4972 5634,6850l331 390c1547,1889 4701,2763 7004,1960 0,0 2657,-933 6106,-2019 7488,-2339 15047,-4335 22701,-5929 2917,-615 4429,-886 4429,-886 2397,-437 4677,-2622 5043,-4866 378,-2244 1016,-6048 1417,-8457l3319 -19807c402,-2398 921,-5516 1158,-6909 224,-1394 1960,-2729 3850,-2953 0,0 0,0 1724,-177 10087,-1051 20327,-1583 30685,-1559 9827,23 19523,519 29102,1535 1795,201 1795,201 1795,201 1961,236 3733,1453 3945,2693 201,1252 697,4228 1099,6638l3401 20527c402,2409 1028,6153 1394,8338 366,2174 2634,4323 5031,4760 0,0 1559,284 4512,922 8327,1771 16618,3992 24803,6684 2728,898 3980,1347 3980,1347 2292,815 5410,0 6921,-1831 1512,-1842 4016,-4878 5563,-6767l12768 -15496c1547,-1890 3496,-4252 4335,-5268 838,-1016 3070,-1181 4960,-366 0,0 0,0 1689,756 17209,7665 33508,17019 48696,27791 1737,1240 1737,1240 1737,1240 1878,1370 2622,3579 1653,4902 -980,1322 -2953,4015 -4393,5976l-15118 20610c-1441,1960 -3804,5185 -5244,7157l-21059 28783c-1441,1973 -3803,5197 -5244,7170l-9437 12909zm-215148 284548c1441,-1960 3803,-5185 5244,-7157l3071 -4193c1429,-1972 4264,-2457 6272,-1063 0,0 7074,4878 8256,5610 48755,30224 112120,33366 165246,2729 2090,-1217 4157,-2457 6189,-3744 968,-615 3886,-2611 3886,-2611 2008,-1370 4878,-921 6366,1016l413 532c1488,1925 3933,5090 5433,7015l12402 16051c1488,1925 3933,5091 5421,7028l22027 28499c1488,1937 3933,5091 5421,7028l15921 20598c1500,1937 3414,4417 4276,5516 862,1110 331,2917 -1181,4039 0,0 0,0 -1370,969 -15614,11232 -32409,20893 -50126,28783 -1618,709 -1618,709 -1618,709 -1783,767 -4027,437 -4984,-721 -957,-1169 -3000,-3661 -4559,-5551l-11716 -14232c-1548,-1890 -4087,-4973 -5634,-6851l-331 -389c-1547,-1890 -4701,-2764 -7004,-1961 0,0 -2657,945 -6106,2020 -7488,2350 -15059,4334 -22701,5929 -2917,614 -4429,886 -4429,886 -2397,437 -4677,2622 -5043,4866 -378,2244 -1016,6047 -1417,8456l-3319 19807c-402,2398 -921,5516 -1158,6910 -224,1393 -1960,2728 -3850,2952 0,0 0,0 -1724,178 -10087,1051 -20339,1582 -30685,1559 -9827,-12 -19523,-520 -29102,-1536 -1795,-201 -1795,-201 -1795,-201 -1973,-236 -3744,-1452 -3945,-2693 -201,-1251 -697,-4228 -1099,-6637l-3401 -20528c-402,-2409 -1028,-6153 -1394,-8338 -366,-2173 -2634,-4323 -5031,-4760 0,0 -1559,-283 -4512,-921 -8327,-1772 -16618,-3992 -24803,-6685 -2728,-898 -3980,-1347 -3980,-1347 -2292,-815 -5410,0 -6921,1831 -1512,1843 -4016,4878 -5563,6756l-12768 15508c-1547,1889 -3508,4252 -4335,5267 -838,1016 -3070,1181 -4960,367 0,0 0,0 -1689,-756 -17209,-7666 -33508,-17008 -48696,-27791 -1737,-1241 -1737,-1241 -1737,-1241 -1878,-1370 -2622,-3578 -1653,-4901 968,-1323 2941,-4016 4393,-5976l15118 -20610c1441,-1973 3804,-5185 5244,-7158l21059 -28783c1441,-1972 3803,-5197 5244,-7169l9437 -12910zm-34712 -249848c1972,1441 5197,3804 7169,5244l4193 3071c1973,1441 2457,4264 1063,6272 0,0 -4890,7075 -5622,8256 -30212,48755 -33354,112132 -2716,165234 1216,2103 2468,4181 3744,6201 614,969 2598,3886 2598,3886 1382,2008 933,4878 -1004,6366l-531 413c-1926,1488 -5091,3933 -7016,5433l-16051 12402c-1925,1488 -5091,3933 -7028,5421l-28499 22027c-1925,1489 -5091,3933 -7028,5433l-20598 15921c-1925,1489 -4417,3414 -5516,4264 -1110,851 -2929,319 -4039,-1181 0,0 0,0 -980,-1370 -11221,-15614 -20882,-32409 -28760,-50125 -720,-1619 -720,-1619 -720,-1619 -768,-1783 -449,-4027 720,-4984 1169,-956 3661,-3000 5551,-4547l14232 -11728c1878,-1547 4973,-4087 6851,-5634l389 -331c1890,-1547 2764,-4700 1961,-7004 0,0 -933,-2669 -2020,-6118 -2350,-7476 -4322,-15047 -5929,-22688 -614,-2918 -885,-4429 -885,-4429 -437,-2398 -2623,-4678 -4867,-5056 -2244,-366 -6047,-1003 -8444,-1405l-19807 -3319c-2410,-401 -5528,-921 -6921,-1146 -1394,-236 -2729,-1972 -2953,-3862 0,0 0,0 -189,-1724 -1040,-10087 -1571,-20327 -1547,-30685 11,-9827 519,-19535 1535,-29114 201,-1783 201,-1783 201,-1783 236,-1961 1453,-3744 2693,-3945 1252,-201 4228,-697 6637,-1098l20528 -3414c2409,-401 6153,-1027 8338,-1382 2185,-366 4323,-2633 4760,-5031 0,0 284,-1547 921,-4512 1772,-8327 3992,-16606 6685,-24803 886,-2728 1335,-3980 1335,-3980 827,-2291 0,-5409 -1831,-6921 -1830,-1512 -4866,-4016 -6744,-5563l-15508 -12768c-1889,-1547 -4263,-3508 -5267,-4334 -1016,-839 -1181,-3071 -366,-4961 0,0 0,0 767,-1701 7654,-17185 16996,-33484 27780,-48684 1228,-1736 1228,-1736 1228,-1736 1382,-1878 3591,-2623 4913,-1654 1323,968 4016,2953 5977,4394l20610 15118c1960,1441 5185,3803 7157,5244l28783 21047c1973,1441 5197,3803 7158,5244l12909 9448zm284572 215148c-1972,-1441 -5197,-3803 -7169,-5244l-4193 -3071c-1973,-1441 -2457,-4264 -1075,-6272 0,0 4902,-7086 5634,-8255 30212,-48756 33354,-112133 2716,-165235 -1216,-2114 -2468,-4181 -3744,-6201 -614,-968 -2598,-3885 -2598,-3885 -1382,-2008 -933,-4878 1004,-6367l531 -413c1926,-1500 5091,-3933 7028,-5433l16039 -12401c1925,-1489 5091,-3933 7028,-5433l28499 -22016c1925,-1488 5091,-3933 7028,-5421l20598 -15933c1925,-1488 4417,-3413 5516,-4264 1110,-862 2917,-319 4039,1181 0,0 0,0 980,1370 11221,15614 20882,32409 28760,50126 720,1618 720,1618 720,1618 768,1783 437,4027 -720,4984 -1169,957 -3661,3000 -5551,4559l-14232 11717c-1890,1547 -4973,4086 -6851,5633l-389 331c-1890,1547 -2764,4701 -1961,7004 0,0 933,2669 2020,6106 2350,7488 4322,15059 5929,22701 614,2917 885,4429 885,4429 437,2397 2623,4677 4867,5055 2244,366 6047,1004 8444,1405l19807 3319c2410,402 5528,922 6921,1158 1394,224 2729,1960 2953,3850 0,0 0,0 177,1724 1052,10087 1583,20327 1559,30685 -11,9827 -519,19535 -1535,29114 -201,1784 -201,1784 -201,1784 -236,1960 -1453,3732 -2693,3944 -1252,201 -4240,697 -6649,1099l-20516 3413c-2409,402 -6153,1028 -8338,1382 -2185,366 -4323,2622 -4760,5031 0,0 -284,1548 -921,4512 -1772,8327 -3992,16606 -6697,24803 -874,2728 -1323,3980 -1323,3980 -827,2292 0,5410 1831,6922 1830,1511 4866,4015 6744,5563l15508 12767c1889,1547 4263,3496 5267,4335 1016,838 1181,3071 366,4960 0,0 0,0 -767,1701 -7654,17185 -16996,33484 -27780,48685 -1228,1736 -1228,1736 -1228,1736 -1382,1878 -3591,2622 -4913,1653 -1323,-968 -4004,-2952 -5977,-4393l-20610 -15118c-1972,-1441 -5185,-3803 -7157,-5244l-28783 -21047c-1973,-1441 -5197,-3803 -7158,-5244l-12909 -9449z"/>
 </g>
</svg>
